<!-- icon666.com - MILLIONS vector ICONS FREE --><svg viewBox="-1 0 470 470.38925" xmlns="http://www.w3.org/2000/svg"><path d="m409.59375 174.386719c-57.125-55.882813-145.726562-63.75-211.804688-18.804688-66.078124 44.945313-91.3125 130.238281-60.324218 203.898438 30.988281 73.664062 109.605468 115.269531 187.941406 99.464843 78.335938-15.804687 134.667969-84.644531 134.667969-164.558593.066406-45.171875-18.140625-88.453125-50.480469-120zm0 0" fill="#0b7"></path><path d="m209.5 21.652344-16.976562-16.96875c-6.25-6.246094-16.375-6.246094-22.625 0l-113.136719 113.136718-39.597657-28.289062-16.96875 16.976562 33.933594 33.9375 28.289063 28.289063c3.125 3.121094 8.1875 3.121094 11.3125 0l135.769531-135.769531c3.121094-3.125 3.121094-8.1875 0-11.3125zm0 0" fill="#e6e7e8"></path><path d="m46.417969 15.027344-17.941407 17.9375 67.886719 45.253906 33.933594-33.933594zm0 0" fill="#d1d3d4"></path><path d="m164.242188 32.960938 11.316406-11.308594 11.3125 11.316406-11.320313 11.3125zm0 0" fill="#898890"></path><path d="m442.082031 182.53125c-1.535156-4.796875-3.3125-9.671875-5.253906-14.460938l14.824219-6.019531c2.09375 5.160157 4 10.402344 5.664062 15.585938zm-11.566406-28.480469c-2.289063-4.613281-4.800781-9.167969-7.359375-13.542969l13.757812-8.152343c2.792969 4.707031 5.457032 9.601562 7.929688 14.570312zm-15.695313-26.484375c-2.929687-4.203125-6.050781-8.347656-9.273437-12.304687l12.414063-10.097657c3.464843 4.265626 6.824218 8.71875 9.976562 13.242188zm-19.433593-23.898437c-3.480469-3.695313-7.199219-7.328125-10.976563-10.808594l10.800782-11.808594c4.085937 3.746094 8.0625 7.664063 11.816406 11.640625zm-22.734375-20.800781c-4-3.144532-8.160156-6.191407-12.425782-9.070313l8.9375-13.265625c4.597657 3.097656 9.101563 6.402344 13.40625 9.785156zm-25.503906-17.207032c-4.472657-2.550781-9.058594-4.953125-13.648438-7.136718l6.886719-14.445313c4.9375 2.351563 9.878906 4.941406 14.695312 7.6875zm-27.785157-13.230468c-4.800781-1.855469-9.679687-3.546876-14.5625-5.042969l4.675781-15.300781c5.253907 1.597656 10.527344 3.429687 15.671876 5.429687zm-29.441406-8.976563c-4.976563-1.113281-10.0625-2.066406-15.136719-2.816406l2.34375-15.847657c5.457032.800782 10.945313 1.824219 16.3125 3.03125zm-30.457031-4.503906c-5.070313-.375-10.246094-.5625-15.390625-.5625v-16c5.527343 0 11.105469.203125 16.558593.601562zm0 0" fill="#ffa733"></path><path d="m177.675781 460.386719c-5.25-1.597657-10.511719-3.476563-15.65625-5.492188l5.855469-14.890625c4.800781 1.871094 9.664062 3.59375 14.535156 5.105469zm-30.855469-12.148438c-4.96875-2.402343-9.914062-5.007812-14.664062-7.753906l8-13.855469c4.414062 2.550782 9 4.976563 13.597656 7.199219zm-28.714843-16.578125c-4.558594-3.105468-9.046875-6.398437-13.359375-9.839844l9.953125-12.519531c4 3.199219 8.175781 6.253907 12.40625 9.128907zm-25.910157-20.632812c-4-3.703125-8-7.640625-11.769531-11.6875l11.6875-10.925782c3.511719 3.757813 7.203125 7.414063 10.921875 10.855469zm-22.632812-24.207032c-3.503906-4.34375-6.847656-8.800781-9.9375-13.296874l13.195312-9.070313c2.847657 4.152344 5.941407 8.296875 9.191407 12.328125zm-18.839844-27.265624c-2.761718-4.695313-5.398437-9.597657-7.855468-14.605469l14.398437-7.066407c2.289063 4.648438 4.738281 9.21875 7.296875 13.601563zm-14.601562-29.765626c-2.0625-5.144531-3.941406-10.402343-5.597656-15.609374l15.246093-4.800782c1.535157 4.800782 3.28125 9.714844 5.191407 14.496094zm-10.023438-31.601562c-1.269531-5.398438-2.351562-10.871094-3.199218-16.269531l15.792968-2.519531c.800782 5.015624 1.808594 10.101562 2.992188 15.109374zm-5.222656-32.742188c-.472656-5.511718-.738281-11.082031-.800781-16.5625l16-.160156c.054687 5.082032.296875 10.257813.726562 15.378906zm15.601562-32.136718-16-1c.34375-5.464844.886719-11.007813 1.597657-16.488282l15.855469 2.144532c-.632813 5.105468-1.136719 10.265625-1.453126 15.34375zm4.175782-30.503906-15.65625-3.335938c1.070312-5.015625 2.34375-10.097656 3.78125-15.097656l15.378906 4.417968c-1.320312 4.609376-2.488281 9.28125-3.503906 14.015626zm0 0" fill="#ffa733"></path><path d="m415.203125 168.675781c-32.8125-32.335937-77.0625-50.40625-123.128906-50.289062-5.792969 0-11.539063.269531-17.238281.800781-93.609376 8.953125-163.644532 89.910156-159.035157 183.832031s82.238281 167.628907 176.273438 167.367188c5.792969 0 11.539062-.265625 17.242187-.796875 68.046875-6.710938 126.046875-52.226563 148.746094-116.726563 22.699219-64.496093 5.988281-136.308593-42.859375-184.15625zm-6.136719 234.511719c-9.984375-8.988281-20.96875-16.800781-32.734375-23.285156 7.230469-25.21875 11.105469-51.28125 11.527344-77.515625h63.824219c-1.75 37.605469-16.863282 73.347656-42.617188 100.800781zm-14.253906 13.648438c-1.71875 1.453124-3.464844 2.859374-5.234375 4.226562-2.214844 1.710938-4.472656 3.351562-6.765625 4.941406-1.824219 1.265625-3.65625 2.511719-5.53125 3.695313-2.398438 1.488281-4.796875 2.890625-7.199219 4.25-1.917969 1.070312-3.832031 2.152343-5.785156 3.144531-2.503906 1.269531-5.054687 2.398438-7.613281 3.550781-1.976563.871094-3.945313 1.777344-5.953125 2.566407-2.65625 1.050781-5.367188 1.945312-8.078125 2.851562-.671875.222656-1.347656.445312-2.019532.652344 13.433594-14.957032 23.789063-32.414063 30.472657-51.375 9.492187 5.378906 18.410156 11.710937 26.609375 18.90625-.96875.878906-1.914063 1.78125-2.902344 2.613281zm-161.410156 26.402343c-2-.800781-3.945313-1.683593-5.902344-2.546875-2.585938-1.144531-5.160156-2.304687-7.679688-3.582031-1.929687-.976563-3.816406-2.046875-5.714843-3.105469-2.453125-1.375-4.886719-2.792968-7.269531-4.296875-1.847657-1.167969-3.648438-2.398437-5.449219-3.636719-2.332031-1.601562-4.617188-3.273437-6.863281-5.019531-1.738282-1.34375-3.453126-2.726562-5.144532-4.148437-1-.839844-1.960937-1.753906-2.953125-2.625 8.203125-7.195313 17.117188-13.527344 26.609375-18.90625 6.683594 18.960937 17.039063 36.417968 30.472656 51.378906l-1.976562-.640625c-2.730469-.921875-5.457031-1.824219-8.128906-2.878906zm-58.320313-257.648437c9.984375 8.988281 20.96875 16.800781 32.738281 23.285156-7.234374 25.21875-11.109374 51.28125-11.53125 77.511719h-63.824218c1.75-37.601563 16.863281-73.34375 42.617187-100.796875zm14.257813-13.648438c1.714844-1.445312 3.460937-2.855468 5.230468-4.226562 2.214844-1.710938 4.472657-3.351563 6.769532-4.941406 1.824218-1.265626 3.65625-2.511719 5.527344-3.695313 2.359374-1.488281 4.800781-2.890625 7.199218-4.25 1.921875-1.070313 3.832032-2.152344 5.785156-3.144531 2.503907-1.269532 5.054688-2.398438 7.613282-3.550782 1.976562-.871093 3.945312-1.777343 5.953125-2.566406 2.65625-1.050781 5.367187-1.945312 8.082031-2.851562.671875-.222656 1.34375-.445313 2.015625-.652344-13.433594 14.957031-23.789063 32.414062-30.472656 51.375-9.492188-5.378906-18.40625-11.710938-26.609375-18.90625.96875-.878906 1.914062-1.742188 2.90625-2.613281zm161.40625-26.402344c2 .800782 3.945312 1.679688 5.90625 2.546876 2.582031 1.144531 5.160156 2.300781 7.679687 3.582031 1.925781.976562 3.824219 2.046875 5.710938 3.105469 2.457031 1.375 4.886719 2.792968 7.273437 4.296874 1.839844 1.167969 3.652344 2.398438 5.453125 3.636719 2.320313 1.601563 4.609375 3.28125 6.855469 5.015625 1.734375 1.347656 3.449219 2.730469 5.144531 4.152344 1 .839844 1.960938 1.753906 2.953125 2.625-8.199218 7.195312-17.117187 13.527344-26.609375 18.90625-6.683593-18.960938-17.039062-36.421875-30.46875-51.378906l1.972657.640625c2.730468.921875 5.457031 1.824219 8.128906 2.921875zm-66.671875 68.488282c-19.417969-.933594-38.496094-5.421875-56.296875-13.238282 13.183594-35.761718 33.464844-60.800781 56.296875-65.601562zm0 16v56.359375h-71.792969c.511719-23.773438 4.023438-47.386719 10.457031-70.277344 19.441407 8.292969 40.21875 13.003906 61.335938 13.894531zm0 72.359375v56.386719c-21.117188.890624-41.894531 5.601562-61.335938 13.894531-6.433593-22.890625-9.945312-46.503907-10.457031-70.28125zm0 72.363281v78.839844c-22.832031-4.800782-43.113281-29.816406-56.296875-65.601563 17.800781-7.816406 36.878906-12.304687 56.296875-13.238281zm16 0c19.417969.933594 38.5 5.421875 56.296875 13.238281-13.183594 35.761719-33.464844 60.800781-56.296875 65.601563zm0-16v-56.363281h71.792969c-.511719 23.777343-4.023438 47.390625-10.457032 70.28125-19.4375-8.292969-40.21875-13.003907-61.335937-13.894531zm0-72.363281v-56.382813c21.117187-.890625 41.898437-5.601562 61.335937-13.894531 6.433594 22.890625 9.945313 46.503906 10.457032 70.277344zm0-72.359375v-78.796875c22.832031 4.796875 43.113281 29.8125 56.296875 65.597656-17.800782 7.804687-36.882813 12.277344-56.296875 13.199219zm-103.785157 88.359375c.417969 26.242187 4.296876 52.3125 11.53125 77.539062-11.769531 6.476563-22.75 14.28125-32.738281 23.261719-25.757812-27.449219-40.871093-63.195312-42.617187-100.800781zm191.570313-16c-.417969-26.238281-4.296875-52.308594-11.527344-77.535157 11.765625-6.476562 22.75-14.28125 32.734375-23.261718 25.757813 27.449218 40.871094 63.195312 42.617188 100.796875zm0 0" fill="#00665a"></path></svg>