<!-- icon666.com - MILLIONS vector ICONS FREE --><svg version="1.1" id="Capa_1" xmlns="http://www.w3.org/2000/svg" xmlns:xlink="http://www.w3.org/1999/xlink" x="0px" y="0px" viewBox="0 0 72.214 72.214" style="enable-background:new 0 0 72.214 72.214;" xml:space="preserve"><g><path d="M72.213,36.105c0-8.227-2.795-15.797-7.448-21.878l3.705-3.547c0.726-0.622,1.223-1.486,1.51-2.587 c0.29-1.102,0.434-2.109,0.434-3.022V4.496V3.919c-0.239-0.861-0.661-1.447-1.259-1.761c-0.598-0.308-1.26-0.467-1.979-0.467 c-1.104,0-2.242,0.217-3.414,0.649c-1.178,0.43-2.149,1.054-2.916,1.87l-2.974,3.154C51.813,2.764,44.288,0,36.11,0 c-3.352,0-6.582,0.493-9.663,1.353l-0.073-0.047c-0.016,0.025-0.031,0.051-0.046,0.077C18.079,3.711,11.007,8.876,6.284,15.79h-1.1 c-0.098,0-0.231,0.05-0.398,0.146c-0.166,0.096-0.275,0.19-0.322,0.287l-2.521,2.446C1.849,18.764,1.8,18.883,1.8,19.028v0.359 c0,0.145,0.014,0.325,0.04,0.535c0.025,0.218,0.154,0.348,0.397,0.4l1.252,0.408c-2.213,4.672-3.488,9.874-3.488,15.377 c0,19.906,16.199,36.106,36.107,36.106c3.354,0,6.581-0.492,9.665-1.353l0.071,0.048c0.016-0.022,0.034-0.05,0.048-0.075 c1.93-0.545,3.791-1.25,5.575-2.092l0.326,0.99c0.191,0.531,0.526,0.794,1.006,0.794c0.191,0,0.456-0.118,0.794-0.358l2.299-2.374 c0.096-0.051,0.181-0.138,0.249-0.254c0.07-0.118,0.109-0.23,0.109-0.326s0.022-0.357,0.07-0.789 c0.021-0.187,0.037-0.324,0.048-0.442C65.919,59.473,72.213,48.514,72.213,36.105z M3.591,37.856h13.012 c0.052,1.574,0.16,3.137,0.323,4.686h-4.698c-0.049,0-0.158,0.051-0.326,0.146c-0.167,0.1-0.296,0.169-0.395,0.217l-2.951,2.949 c-0.047,0.193-0.071,0.314-0.071,0.36v0.068c0,0.627,0.265,1.031,0.793,1.221l7.208,1.752H6.295 C4.738,45.738,3.808,41.895,3.591,37.856z M6.295,22.955h4.025l7.041,2.293c-0.47,2.985-0.733,6.027-0.792,9.105H3.591 C3.808,30.317,4.738,26.472,6.295,22.955z M68.62,34.353H56.389V22.955h9.526C67.475,26.472,68.403,30.317,68.62,34.353z M34.235,30.747c0.051,0.025,0.072,0.077,0.119,0.11v1.738l-1.645,1.759H20.073c0.051-2.705,0.261-5.382,0.651-8.01L34.235,30.747z M29.437,37.856l-4.043,4.33c-0.049,0.096-0.156,0.176-0.325,0.248c-0.168,0.071-0.278,0.107-0.324,0.107h-4.298 c-0.168-1.549-0.283-3.109-0.339-4.686H29.437z M29.776,46.929l4.578-4.286v6.613h-4.625L29.776,46.929z M37.857,39.367 l1.607-1.511h1.76c0.073,0.121,0.173,0.237,0.205,0.37l3.629,11.029h-7.201V39.367z M37.857,15.788V3.591 c1.703,0.091,3.371,0.28,4.996,0.62c2.335,3.626,4.249,7.501,5.721,11.577H37.857z M34.354,15.788H23.29 c1.359-3.99,3.136-7.801,5.312-11.379c1.864-0.441,3.784-0.713,5.753-0.817V15.788z M26.648,63.295l2.842-2.844l0.161-7.692h4.703 v15.86c-1.701-0.091-3.373-0.28-4.997-0.625C28.376,66.473,27.48,64.903,26.648,63.295z M37.857,52.759h8.352l1.923,5.86 c-1.232,3.195-2.747,6.269-4.526,9.184c-1.863,0.44-3.784,0.714-5.752,0.818L37.857,52.759L37.857,52.759z M56.389,37.856H68.62 c-0.217,4.038-1.146,7.882-2.705,11.399h-9.526V37.856z M64.085,19.451h-4.776l2.911-2.786 C62.886,17.561,63.506,18.488,64.085,19.451z M51.648,13.95c-1.058-2.839-2.328-5.583-3.791-8.222 c2.73,1.061,5.276,2.479,7.594,4.195L51.648,13.95z M23.687,5.973c-1.64,3.134-2.995,6.421-4.081,9.814h-8.953 C14.074,11.504,18.545,8.098,23.687,5.973z M8.127,52.759h7.885c-0.191,0.292-0.399,0.573-0.513,0.929 c-0.168,0.529-0.253,1.054-0.253,1.583c0,1.056,0.552,1.583,1.654,1.583c1.136,0,2.083-0.321,2.871-0.926 c1.208,3.663,2.724,7.199,4.584,10.555C17.536,63.836,11.836,58.968,8.127,52.759z M48.523,66.233 c0.44-0.84,0.872-1.695,1.273-2.56l0.561,1.706C49.753,65.679,49.151,65.978,48.523,66.233z M56.389,61.587v-8.828h7.696 C62.06,56.145,59.457,59.135,56.389,61.587z"></path></g></svg>